<svg xmlns="http://www.w3.org/2000/svg" xml:space="preserve" width="75" height="63"><path d="M228.305 133.001c2.571-1.908 5.389-3.904 8.754-3.14 2.324.527 3.61-2.064 2.205-3.788-1.618-1.985-5.514-.323-7.198.804-2.036 1.362-3.487 3.378-4.414 5.622-.145.348.352.725.653.502" style="fill:#ffeea4" transform="translate(-185.59 -102.658)"/><path d="M225.997 131.976c.421-.656.376-1.19.455-1.975.127-1.252.31-2.455.84-3.608a10 10 0 0 1 1.643-2.49c.755-.838 1.424-1.126 1.659-2.286.215-1.063-.607-1.763-1.619-1.619-2.253.321-3.446 3.849-3.925 5.777-.433 1.741-1.125 4.959.486 6.259.15.122.351.113.461-.058" style="fill:#ea6115" transform="translate(-185.59 -102.658)"/><path d="M223.75 132.473c.029-4.664-2.177-8.351-5.198-11.644-.496-.54-1.298-.695-1.986-.525l-.199.049c-2.003.496-1.755 3.21 0 3.819 1.7.589 2.795 1.854 3.602 3.45.858 1.698.959 3.744 1.99 5.335.509.786 1.784.498 1.791-.484" style="fill:#ffb53e" transform="translate(-185.59 -102.658)"/><path d="M219.881 134.782c-.628-5.985-10.748-5.951-13.948-2.442-1.095 1.2-.046 3.475 1.685 2.894 2.071-.696 3.755-2.028 6.043-2.107 2.244-.078 3.734 1.118 5.665 1.974.225.099.587-.01.555-.319" style="fill:#ffd93b" transform="translate(-185.59 -102.658)"/><path d="M219.262 136.845c-1.953-.623-4.364 1.017-5.796 2.213-1.756 1.465-3.167 3.636-3.609 5.896-.495 2.531 3.03 3.525 3.871 1.067.576-1.685 1.274-3.213 2.443-4.585 1.057-1.242 2.726-1.974 3.611-3.313.322-.489-.013-1.117-.52-1.278" style="fill:#e8bd07" transform="translate(-185.59 -102.658)"/><path d="M223.279 137.915c-1.381.742-1.969 3.248-2.343 4.623-.596 2.189-.795 4.593-.008 6.752.882 2.416 4.772 1.381 3.889-1.072-1.028-2.855-.131-5.175-.08-8.059.011-.665-.219-2.909-1.458-2.244" style="fill:#ffeea4" transform="translate(-185.59 -102.658)"/><path d="M229.814 135.622c1.061.61 2.212.874 3.309 1.396.802.381 2.488 1.033 2.756 1.935.898 3.037 5.549.862 3.858-1.626-1.282-1.887-3.409-2.952-5.627-3.365-1.522-.284-4.214-.608-4.4 1.481-.005.07.046.145.104.179" style="fill:#ffd93b" transform="translate(-185.59 -102.658)"/><path d="M227.318 138.763c.085 2.374 2.106 4.178 1.191 6.597-.891 2.354 3.094 4.065 4.101 1.729 1.423-3.301-.461-7.649-3.691-9.245-.687-.34-1.63.063-1.601.919M231.661 124.442c1.106.151 1.827-.119 2.896-.426 1.252-.36 2.247-.257 3.506-.066 3.18.483 3.782-4.213.587-4.334-2.439-.091-7.416 1.518-7.19 4.562.008.107.078.248.201.264" style="fill:#fff" transform="translate(-185.59 -102.658)"/><path d="M223.959 120.975c1.431-1.108.583-3.795 2.069-4.651.732-.422 1.195-1.429.918-2.257-.178-.532-.435-.909-.918-1.195-.89-.527-2.245-.243-2.735.717-1.007 1.973-1.365 5.184-.465 7.24.207.473.81.395 1.131.146" style="fill:#7cd8cd" transform="translate(-185.59 -102.658)"/><path d="M214.691 126.294c-1.103-1.207-1.987-2.075-3.534-2.712-1.392-.574-3.368-1.179-4.752-.371-2.145 1.251-.731 5.021 1.741 4.129 1.932-.697 4.183-1.083 6.206-.459.348.106.565-.341.339-.587" style="fill:#e8bd07" transform="translate(-185.59 -102.658)"/><path d="M210.215 137.737c-1.891-.115-3.283.101-4.822 1.297-1.449 1.127-2.635 2.706-3.15 4.483-.625 2.157 2.787 3.094 3.36.926.346-1.311.781-2.467 1.712-3.488.851-.935 1.937-2.08 3.048-2.671.272-.144.126-.53-.148-.547" style="fill:#ffb53e" transform="translate(-185.59 -102.658)"/><path d="M216.988 144.761c-1.197.583-1.674 2.198-1.95 3.411-.372 1.633-.141 3.069-.132 4.704.02 3.537 5.942 1.617 3.426-1.419-.668-.806-.448-2.693-.389-3.674.059-.972.256-1.907-.165-2.814-.138-.299-.531-.334-.79-.208" style="fill:#ea6115" transform="translate(-185.59 -102.658)"/><path d="M226.346 149.471c-.901 1.187-.797 3.325-.789 4.742a2.13 2.13 0 0 0 2.413 2.092c1.145-.155 2.252-1.441 1.77-2.658-.576-1.452-1.154-3.479-2.488-4.413-.317-.223-.704-.028-.906.237M238.157 143.678c-.767-.705-1.837-1.5-2.934-1.304a.53.53 0 0 0-.384.383c-.257 1.455 1.131 2.653.817 4.164-.265 1.27.452 2.515 1.796 2.697 1.258.17 2.468-.81 2.448-2.122-.02-1.45-.676-2.839-1.743-3.818-.766-.705 1.067.979 0 0" style="fill:#e8bd07" transform="translate(-185.59 -102.658)"/><path d="M238.168 133.267c.544.689 1.498.968 2.18 1.503.772.607 1.326 1.456 1.804 2.3 1.637 2.892 5.868-.668 3.456-2.667-1.248-1.035-2.427-2.081-3.98-2.632-1.144-.406-2.861-.502-3.563.698-.163.278-.082.564.103.798" style="fill:#ffd93b" transform="translate(-185.59 -102.658)"/><path d="M241.635 128.128c1.368.446 2.758.943 3.456 2.285 1.305 2.508 5.351.145 3.785-2.212-1.562-2.351-5.417-3.4-7.529-1.165a.66.66 0 0 0 .288 1.092" style="fill:#e8bd07" transform="translate(-185.59 -102.658)"/><path d="M230.352 118.398c.748-.335 1.384-.837 2.124-1.195.333-.161.678-.253 1.038-.333.159-.035.337-.046.492-.088.402-.109.487.271-.131-.132 2.421 1.58 4.821-2.551 2.257-3.861-2.026-1.036-4.439.64-5.781 2.154-.58.654-1.253 1.536-1.127 2.47.06.441.597 1.223 1.128.985" style="fill:#7cd8cd" transform="translate(-185.59 -102.658)"/><path d="M218.106 117.214c1.75-2.119.966-5.069.159-7.489-1.037-3.109-5.616-.708-3.877 1.634 1.366 1.838 1.715 4.074 3.116 5.855.133.17.468.163.602 0" style="fill:#e8bd07" transform="translate(-185.59 -102.658)"/><path d="M212.252 117.364c-1.147-.79-2.025-1.888-3.248-2.588-1.231-.706-2.593-1.122-4.011-1.173-3.016-.111-3.006 4.835 0 4.675 1.992-.106 4.378.003 6.235.835 1.183.53 2.113-.999 1.024-1.749M229.033 111.843c.642-.553 1.423-.94 2.134-1.397.708-.454 1.389-.788 2.204-.995 1.041-.264 1.561-1.451 1.157-2.41-.39-.924-1.634-1.462-2.533-.854-1 .677-1.916 1.486-2.586 2.501-.607.92-.73 1.932-.732 3.008.001.191.223.261.356.147" style="fill:#ffd93b" transform="translate(-185.59 -102.658)"/><path d="M222.306 111.74c.471-.793.895-1.422 1.171-2.323.28-.914.448-1.851.65-2.783.121-.56.024-1.203-.425-1.605l-.247-.222c-.524-.469-1.358-.541-1.874 0-.967 1.013-.554 1.872-.376 3.11.173 1.21.356 2.452.502 3.662.035.298.422.46.599.161M211.296 112.665c-.104-.356.013-.75-.032-1.12-.058-.479-.247-.898-.435-1.34-.356-.836-.849-1.74-1.518-2.366-.743-.695-1.928-.736-2.664 0-.697.697-.752 1.974 0 2.664.599.55 1.337 1.006 2.012 1.463.282.191.543.422.836.594.336.198.818.247 1.089.52.297.298.832-.004.712-.415" style="fill:#fff" transform="translate(-185.59 -102.658)"/><path d="M204.399 120.656c-.831-.199-1.586-.666-2.432-.85a12 12 0 0 0-2.424-.25c-1.403-.003-3.453.201-4.446 1.302-1.623 1.8.842 4.248 2.651 2.651.739-.653 2.262-.909 3.21-1.117 1.082-.237 2.229-.688 3.315-.807.494-.054.687-.795.126-.929" style="fill:#ea6115" transform="translate(-185.59 -102.658)"/><path d="M204.455 129.405c-1.705-2.755-6.809-1.561-9.128-.418-2.231 1.1-.237 4.61 1.967 3.365 1.202-.679 2.368-1.184 3.722-1.482 1.107-.244 2.282-.165 3.264-.792.219-.139.32-.439.175-.673" style="fill:#ffeea4" transform="translate(-185.59 -102.658)"/><path d="M201.658 134.189c-1.465-.421-3.292.305-4.494 1.134-1.367.943-3.411 2.868-2.137 4.646.509.709 1.308 1.137 2.195.893.796-.219 1.467-1.027 1.427-1.874.019.399-.215.527.133.037.097-.136.192-.276.296-.406.29-.361.623-.71.955-1.032.641-.625 1.471-1.066 2.065-1.729.499-.555.309-1.454-.44-1.669" style="fill:#ea6115" transform="translate(-185.59 -102.658)"/><path d="M239.986 117.96c2.287-.334 4.6-.778 6.944-.689 1.868.071 2.368-3.063.451-3.332-1.63-.229-3.249-.136-4.775.524-1.54.665-2.391 1.472-3.036 2.956-.135.31.085.59.416.541" style="fill:#ffeea4" transform="translate(-185.59 -102.658)"/><path d="M242.177 123.316c1.585 1.158 4.011.044 5.692.856 2.168 1.046 4.066-2.071 1.91-3.269-1.902-1.057-7.141-.568-7.771 1.996-.043.174.032.317.169.417M238.762 112.641a9.6 9.6 0 0 0 1.591-.42c.696-.244 1.198-.197 1.914-.36 1.801-.412 1.342-3.096-.426-3.144-1.722-.046-4.18 1.848-3.404 3.739.058.143.169.212.325.185" style="fill:#ffb53e" transform="translate(-185.59 -102.658)"/><path d="M208.052 147.525c-3.205.102-5.84 4.463-5.687 7.349.152 2.842 4.506 2.285 3.858-.522-.521-2.254 1.934-4.047 2.377-6.108.073-.348-.161-.732-.548-.719" style="fill:#fff" transform="translate(-185.59 -102.658)"/><path d="M212.309 151.554a.7.7 0 0 0 .13-.432c-.023-.311-.228-.716-.582-.765-1.427-.196-2.164 1.742-2.655 2.794-.875 1.876-1.456 3.828-1.542 5.905-.126 3.044 4.928 3.002 4.695 0a27.6 27.6 0 0 1 .045-4.756c.1-1.065.501-2.589-.069-3.579v.801l.015-.026-.951.249.046.035c.283.215.697.034.868-.226" style="fill:#ffb53e" transform="translate(-185.59 -102.658)"/><path d="M232.893 150.946c-.155 1.34.093 2.654-.131 4.02-.235 1.438-.528 2.971-1.392 4.167-1.714 2.379 2.485 4.943 3.982 2.328 1.503-2.626 2.188-9.628-1.292-11.186-.572-.254-1.096.056-1.167.671" style="fill:#ffeea4" transform="translate(-185.59 -102.658)"/><path d="M222.109 151.976c-2.805 2.203-2.656 7.576-2.315 10.757.175 1.628 2.194 2.887 3.506 1.452l.124-.136c.77-.841.784-2.46-.389-3.018l-.15-.071.944 1.227c-.375-1.785-.488-3.532-.411-5.349.064-1.5.397-3.065-.026-4.524-.176-.602-.839-.686-1.283-.338" style="fill:#ffd93b" transform="translate(-185.59 -102.658)"/><path d="M240.757 142.128c.689 1.111 2.241 1.684 3.222 2.522 1.278 1.094 2.357 2.482 2.973 4.055 1.184 3.02 5.628 1.151 4.102-1.729-1.311-2.474-3.331-4.588-5.877-5.796-.986-.468-2.404-1.043-3.505-.648-.542.194-1.308.964-.915 1.596" style="fill:#ffb53e" transform="translate(-185.59 -102.658)"/><path d="M248.022 138.303c1.32 1.361 3.433 1.654 4.09 3.647.804 2.439 4.5.822 3.201-1.35-.8-1.337-1.992-2.542-3.424-3.189-1.19-.538-2.88-.768-3.867.276a.444.444 0 0 0 0 .616" style="fill:#fff" transform="translate(-185.59 -102.658)"/><path d="M249.867 132.618c.048.622.678 1.008 1.093 1.387.634.58 1.176 1.161 1.726 1.819 1.252 1.499 3.596-.763 2.169-2.168-.788-.776-1.925-1.412-3.023-1.574-.495-.073-1.043-.154-1.512.078-.144.072-.468.259-.453.458" style="fill:#ffeea4" transform="translate(-185.59 -102.658)"/><path d="M242.044 147.87c.245 1.225.545 2.359.509 3.628-.041 1.46-.28 2.941-.497 4.384-.521 3.481 4.69 3.501 4.163 0-.4-2.647-.289-7.751-3.709-8.478-.294-.062-.525.176-.466.466" style="fill:#7cd8cd" transform="translate(-185.59 -102.658)"/><path d="M199.673 143.625c-1.401-.767-3.084.761-3.821 1.829-1.094 1.586-1.582 4.106-.587 5.833 1.065 1.849 3.503.51 3.218-1.357-.192-1.264-.674-2.128-.039-3.402.401-.805 1.274-1.481 1.446-2.369.04-.203-.024-.429-.217-.534" style="fill:#ffd93b" transform="translate(-185.59 -102.658)"/><path d="M251.59 126.895c.704.297 1.317.5 1.962.938.402.273 1.004.543 1.23.988.838 1.652 3.321.197 2.484-1.452-.573-1.128-1.824-1.494-2.991-1.637-.94-.115-2.265-.101-2.839.787-.099.154.011.316.154.376" style="fill:#ea6115" transform="translate(-185.59 -102.658)"/><path d="M200.061 116.606c-.426-1.979-3.876-2.171-5.16-1.048-.678.594-.52 1.905.297 2.305.729.357 1.31.181 1.888-.325l-.647.377c1.077-.287 2.191-.376 3.259-.668.282-.078.423-.365.363-.641" style="fill:#7cd8cd" transform="translate(-185.59 -102.658)"/><path d="M203.779 111.352c-.318-.268-.417-.685-.756-.954a3.1 3.1 0 0 0-1.199-.566c-.839-.206-2.071-.291-2.809.24-.651.469-.968 1.296-.534 2.037.376.643 1.382 1.008 2.037.534.364-.263.882-.311 1.318-.359.278-.031.564-.038.839-.092.228-.045.444-.164.663-.08.417.162.779-.475.441-.76" style="fill:#ffb53e" transform="translate(-185.59 -102.658)"/><path d="m218.537 106.325-.018-.108v.279c.085-.406.171-.815.011-1.308-.193-.593-.573-1.197-1.117-1.516a1.4 1.4 0 0 0-1.8.359c-.394.51-.423 1.382.109 1.832.171.144.331.274.536.361.479.202-.153-.093.135.062.157.085.323.158.485.23.189.084.377.14.573.201.037.011.099.037.198.071l.077.024q.157.044-.013-.01c.371.387.896-.025.824-.477" style="fill:#ffeea4" transform="translate(-185.59 -102.658)"/><path d="M226.977 107.181c.4-.301.765-.671 1.192-.93.499-.302.799-.358 1.391-.533.744-.219 1.211-1.008 1.002-1.765-.223-.812-.997-1.128-1.764-1.002-1.605.265-3.235 2.203-2.763 3.846.104.361.601.641.942.384" style="fill:#e8bd07" transform="translate(-185.59 -102.658)"/><path d="M236.93 107.564c.1-.032.275-.022.396-.016.299.015.579.021.88-.005.737-.063 1.222.207 1.991-.168.719-.349.881-1.532.265-2.052-.545-.46-1.08-.553-1.759-.41a3.4 3.4 0 0 0-1.153.493c-.357.242-.718.622-.847 1.044-.092.297-.046.588-.071.884-.014.152.161.273.298.23" style="fill:#ea6115" transform="translate(-185.59 -102.658)"/><path d="M194.752 126.09c-.411-.968-1.92-1.088-2.812-.993-1.379.147-2.79.655-2.893 2.241-.087 1.328 1.913 2.27 2.787 1.154.73-.933 2.035-.698 2.799-1.485.26-.267.255-.598.119-.917" style="fill:#ffb53e" transform="translate(-185.59 -102.658)"/><path d="M192.992 135.012q.258.367-.024-.01a.9.9 0 0 0-.299-.2 1.7 1.7 0 0 0-.691-.176c-.553-.041-1.061.094-1.56.319-.874.394-2.063 1.031-2.237 2.063-.144.848.153 1.66.987 2.011.791.333 1.675.029 2.129-.697.027-.042.23-.396.035-.097.107-.164.251-.318.372-.471-.138.172.188-.222.181-.213a7 7 0 0 1 .294-.316c.366-.374.93-.853 1.049-1.38l-.361.47.127-.094c.364-.271.535-.979-.002-1.209" style="fill:#e8bd07" transform="translate(-185.59 -102.658)"/><path d="M251.058 118.878c.907-.131 1.671.659 2.336 1.149.655.483 1.682.109 2.061-.541.377-.643.206-1.727-.54-2.061-1.543-.69-2.854-.241-4.229.569-.505.3-.141.959.372.884" style="fill:#ea6115" transform="translate(-185.59 -102.658)"/><path d="M246.061 111.556c.72.563 3.272 1.011 3.272-.469 0-.749-.834-.96-1.43-.897-.649.069-1.368.214-1.843.693-.165.166-.204.513.001.673" style="fill:#7cd8cd" transform="translate(-185.59 -102.658)"/><path d="M211.242 105.813c.134-.136.304-.211.412-.38a1.5 1.5 0 0 0 .199-.589 2.17 2.17 0 0 0-.374-1.589c-.459-.621-1.318-.841-1.913-.247-.518.519-.474 1.574.246 1.914.119.056.239.109.348.184-.213-.146.311.281.272.241-.146-.151.15.208.111.166.065.07.187.151.192.167.074.209.338.303.507.133" style="fill:#ea6115" transform="translate(-185.59 -102.658)"/><path d="M204.033 108.244c-.018.224.055-.104.082-.182q.076-.217.084-.448a1.97 1.97 0 0 0-.226-.97c-.352-.708-1.381-.769-1.904-.245-.512.512-.477 1.575.245 1.904.122.056.247.117.373.16.235.082-.231-.109.112.033.008.003.251.074.153.066-.065-.005.015.041.004.028l-.163-.28.031.096c.217.679 1.155.526 1.209-.162" style="fill:#e8bd07" transform="translate(-185.59 -102.658)"/><path d="M191.675 121.165c-.225-.171-.38-.384-.63-.528a3.2 3.2 0 0 0-.763-.318c-.604-.158-1.377-.133-1.812.362-.408.464-.298 1.313.386 1.462.833.182 1.684-.546 2.512-.252.463.165.636-.476.307-.726M189.312 131.683c-.249.008-.499-.082-.747-.092-.268-.012-.55.037-.813.084a3.7 3.7 0 0 0-1.5.63c-.497.364-.744.992-.41 1.563.281.481 1.071.788 1.563.41.388-.298.755-.619 1.144-.917.258-.198.595-.58.896-.692.5-.186.47-1.004-.133-.986" style="fill:#fff" transform="translate(-185.59 -102.658)"/><path d="M192.085 141.872c-1.549.515-2.424 2.01-2.838 3.515a1.45 1.45 0 0 0 .997 1.757c.685.188 1.629-.232 1.757-.997.198-1.179.696-2.263.934-3.425.1-.483-.317-1.027-.85-.85" style="fill:#7cd8cd" transform="translate(-185.59 -102.658)"/><path d="M215.431 158.374c-.884.12-1.293 1.282-1.396 2.03-.145 1.043.13 2.059.825 2.857 1.122 1.288 3.309-.395 2.372-1.831-.285-.438-.567-.767-.689-1.292-.108-.467-.044-1.019-.303-1.435-.189-.301-.481-.374-.809-.329" style="fill:#ea6115" transform="translate(-185.59 -102.658)"/><path d="M226.363 160.828c-.182.519-.087 1.13-.139 1.674-.055.561-.226 1.1-.37 1.644-.518 1.95 2.359 2.71 2.999.827.48-1.415.071-4.17-1.675-4.607-.365-.093-.693.117-.815.462" style="fill:#e8bd07" transform="translate(-185.59 -102.658)"/><path d="M238.226 155.811c-.303.842-.384 1.76-.649 2.62-.272.889-.776 1.811-.691 2.753.111 1.237 1.427 1.796 2.382.986 1.674-1.422 1.308-5.102-.093-6.609-.311-.334-.813-.131-.949.25M248.221 152.568c.136.432.125.927.1 1.376-.029.499-.201.943-.071 1.447.122.474.696.696 1.112.453.73-.428.858-1.362.691-2.134-.159-.733-.593-1.227-1.206-1.623-.31-.199-.738.131-.626.481" style="fill:#ea6115" transform="translate(-185.59 -102.658)"/><path d="M199.909 150.998c-1.523 1.204-3.167 4.204-.941 5.634.852.547 1.806-.188 1.875-1.076.054-.688-.282-1.344-.287-2.046-.005-.726.105-1.463.145-2.185.024-.444-.506-.554-.792-.327" style="fill:#e8bd07" transform="translate(-185.59 -102.658)"/><path d="M188.093 140.839c-.49-.18-1.171-.039-1.61.232-.627.386-1.21 1.316-.699 2.012.338.461 1.041.684 1.485.191.251-.278.307-.529.367-.88q.016-.168.013-.078-.007.091.029-.076c-.044.074.066-.112.072-.125.126-.249.083-.187.279-.412.137-.156.203-.301.277-.492.062-.161-.073-.32-.213-.372M191.73 148.931c-.538.302-.992 1.085-1.208 1.651-.296.777-.114 1.533.424 2.148.957 1.091 2.752-.068 2.378-1.385-.042-.15-.046-.352-.12-.488-.059-.109-.03.145.005.032.03-.1.021-.278.031-.379.062-.621-.064-1.219-.616-1.58-.264-.173-.626-.149-.894.001" style="fill:#ea6115" transform="translate(-185.59 -102.658)"/><path d="M204.44 158.176c-.76.652-1.142 1.778-.828 2.751.181.563.616.837 1.178.898.378.041.739-.193.96-.482.31-.407.282-.842.158-1.31-.067-.253-.128-.657-.044-1.028.196-.858-.781-1.381-1.424-.829" style="fill:#ffeea4" transform="translate(-185.59 -102.658)"/><path d="M252.716 145.544c.506.614.263 1.706.239 2.406-.02.592.473 1.114 1.043 1.182.624.075 1.107-.285 1.32-.862.289-.782.063-1.776-.412-2.439-.448-.625-1.015-.869-1.711-1.109-.509-.177-.761.478-.479.822" style="fill:#7cd8cd" transform="translate(-185.59 -102.658)"/><path d="M251.645 152.245c-.145.346-.216.733-.317 1.093l-.169.611c-.117.436-.072.782.118 1.192.217.468.855.661 1.322.538 1.785-.466 1.42-3.756-.435-3.83-.259-.011-.428.18-.519.396" style="fill:#fff" transform="translate(-185.59 -102.658)"/><path d="M255.623 138.388c.441.539.73 1.145.994 1.78.174.419.514.725.999.652.402-.06.845-.439.789-.894-.145-1.198-1.02-2.285-2.249-2.456-.547-.076-.899.472-.533.918M252.337 123.155c1.89.32 3.315 1.146 4.741 2.375.946.815 2.577-.231 1.825-1.408-1.38-2.16-4.614-2.913-6.637-1.235-.089.073-.044.249.071.268" style="fill:#ffb53e" transform="translate(-185.59 -102.658)"/><path d="M255.977 132.333c.393.552 1.025.909 1.525 1.364.556.508.58 1.275 1.094 1.799.512.52 1.462.418 1.819-.234.667-1.223-.298-2.511-1.347-3.13-.848-.501-2.052-.713-2.967-.277-.16.076-.228.334-.124.478M256.201 144.041c-.095.583.283 1.202.515 1.726.275.623.311 1.363.685 1.935.564.863 1.735.645 2.081-.271.384-1.019-.309-2.413-1.067-3.1-.359-.326-.819-.609-1.304-.684-.301-.046-.844-.008-.91.394M255.506 149.895c.003.075-.062.317-.069.459a5 5 0 0 0-.009.354c.009.399.062.81.298 1.144.224.314.518.528.921.528.342 0 .775-.195.921-.528.241-.552.242-1.025.011-1.576a2.4 2.4 0 0 0-.279-.485 1.7 1.7 0 0 0-.288-.324c-.022-.018-.159-.099-.18-.121-.458-.474-1.351-.124-1.326.549M193.922 154.323c-.956.643-.817 2.214.178 2.743.781.415 1.61-.266 1.438-1.105.055.27-.042-.206-.074-.3a1.6 1.6 0 0 0-.163-.351q.04.11.005.004c-.154-.336-.113-.406-.31-.709-.219-.338-.707-.528-1.074-.282" style="fill:#ea6115" transform="translate(-185.59 -102.658)"/><path d="m231.097 163.76-.041.12.174-.299c-.376.438-.641 1.213-.425 1.773.343.885 1.465.887 1.808 0 .217-.56-.049-1.335-.425-1.773l.175.299-.042-.12a.641.641 0 0 0-1.224 0" style="fill:#fff" transform="translate(-185.59 -102.658)"/></svg>